<svg width="642" height="240" viewBox="0 0 642 240" fill="none" xmlns="http://www.w3.org/2000/svg">
<path d="M446.975 113.873C423.756 113.873 407.439 127.242 407.439 145.837C407.439 163.277 422.661 179.327 450.141 179.327C462.013 179.713 473.905 177.106 484.445 171.618V160.302L484.052 160.107C474.171 166.935 462.234 170.314 450.239 169.876C432.511 169.876 421.022 159.856 419.846 148.35H487.323C488.839 132.519 478.637 113.873 446.975 113.873ZM419.846 138.891C419.846 131.53 431.847 123.181 447.464 123.181C463.081 123.181 475.119 129.739 475.119 138.891H419.846Z" fill="#2A1C42"/>
<path d="M591.414 145.471L557.814 174.94L558.01 175.249H573.482L599.493 152.531L625.504 175.249H640.877L641.172 174.94L607.473 145.471L639.104 117.743L638.905 117.435H623.535L599.493 138.309L575.451 117.435H560.081L559.786 117.743L591.414 145.471Z" fill="#2A1C42"/>
<path d="M531.409 94.1719H518.744V104.726H531.409V94.1719Z" fill="#2A1C42"/>
<path d="M530.582 117.435H519.762V175.133H530.582V117.435Z" fill="#2A1C42"/>
<path d="M306.473 127.035V117.435H386.114L386.549 117.653L327.884 165.533H381.792V175.133H299.432L299.24 174.833L358.845 127.035H306.473Z" fill="#2A1C42"/>
<path d="M123.465 2L240.265 60.5778L185.138 143.357L242.226 172.436L123.493 232.783L3 172.457L112.548 117.615L3.03821 62.3099L123.465 2ZM219.629 74.5584L24.0744 172.456L121.838 221.405L219.629 74.5584ZM179.87 151.266L137.332 215.145L221.417 172.424L179.87 151.266ZM123.465 12.5481L24.0337 62.3433L123.057 112.352L222.924 62.3586L123.465 12.5481Z" fill="#2A1C42"/>
<path d="M123.689 1.55306L123.465 1.44072L123.241 1.55293L2.81432 61.8628L1.92536 62.308L2.81281 62.7562L111.435 117.613L2.77617 172.01L1.88311 172.457L2.77616 172.904L123.27 233.23L123.495 233.343L123.72 233.228L242.453 172.882L243.329 172.436L242.453 171.99L185.865 143.166L240.681 60.8549L240.994 60.3843L240.489 60.1309L123.689 1.55306ZM25.1913 172.456L218.17 75.8483L121.667 220.76L25.1913 172.456ZM220.314 172.424L138.804 213.836L180.04 151.913L220.314 172.424ZM221.808 62.3585L123.058 111.792L25.1466 62.3452L123.465 13.1073L221.808 62.3585Z" fill="#2A1C42" stroke="black"/>
<path d="M400.454 238.417L400.889 238.625L400.268 239.887L399.833 239.68L400.454 238.417Z" fill="#C4C4C4"/>
</svg>
